<svg xmlns="http://www.w3.org/2000/svg" xmlns:xlink="http://www.w3.org/1999/xlink" width="1900" height="2655" viewBox="0 0 1900 2655"><defs><linearGradient id="Unbenannter_Verlauf_28" y1="642.5" x2="1900" y2="642.5" gradientUnits="userSpaceOnUse"><stop offset="0.21"/><stop offset="0.24" stop-color="#080808"/><stop offset="0.28" stop-color="#1c1c1c"/><stop offset="0.33" stop-color="#3e3e3e"/><stop offset="0.39" stop-color="#6e6e6e"/><stop offset="0.45" stop-color="#aaa"/><stop offset="0.51" stop-color="#f3f3f3"/><stop offset="0.52" stop-color="#fff"/><stop offset="0.55" stop-color="#eee"/><stop offset="0.62" stop-color="#c2c2c2"/><stop offset="0.71" stop-color="#7b7b7b"/><stop offset="0.78" stop-color="#383838"/><stop offset="0.88" stop-color="#8f8f8f"/><stop offset="1" stop-color="#fff"/></linearGradient><linearGradient id="Unbenannter_Verlauf_5" y1="2012.5" x2="1900" y2="2012.5" gradientUnits="userSpaceOnUse"><stop offset="0.51"/><stop offset="0.55" stop-color="#080808"/><stop offset="0.62" stop-color="#1c1c1c"/><stop offset="0.69" stop-color="#3e3e3e"/><stop offset="0.78" stop-color="#6e6e6e"/><stop offset="0.88" stop-color="#aaa"/><stop offset="0.98" stop-color="#f3f3f3"/><stop offset="1" stop-color="#fff"/></linearGradient><mask id="mask" x="0" y="0" width="1900" height="1285" maskUnits="userSpaceOnUse"><g transform="translate(0)"><rect width="1900" height="1285" style="fill:url(#Unbenannter_Verlauf_28)"/></g></mask><linearGradient id="Unbenannter_Verlauf_14" x1="950" y1="1285" x2="950" gradientUnits="userSpaceOnUse"><stop offset="0.11" stop-color="#fff" stop-opacity="0"/><stop offset="0.17" stop-color="#d7faf2" stop-opacity="0.2"/><stop offset="0.25" stop-color="#aef5e5" stop-opacity="0.41"/><stop offset="0.33" stop-color="#8bf1da" stop-opacity="0.59"/><stop offset="0.42" stop-color="#6feed0" stop-opacity="0.74"/><stop offset="0.5" stop-color="#58ebc9" stop-opacity="0.85"/><stop offset="0.58" stop-color="#49e9c4" stop-opacity="0.94"/><stop offset="0.67" stop-color="#3fe8c1" stop-opacity="0.98"/><stop offset="0.76" stop-color="#3ce8c0"/></linearGradient><mask id="mask-2" x="0" y="1370" width="1900" height="1285" maskUnits="userSpaceOnUse"><g transform="translate(0)"><rect y="1370" width="1900" height="1285" style="fill:url(#Unbenannter_Verlauf_5)"/></g></mask><linearGradient id="Unbenannter_Verlauf_40" x1="950" y1="2655" x2="950" y2="1370" gradientUnits="userSpaceOnUse"><stop offset="0" stop-color="#fff" stop-opacity="0"/><stop offset="0.05" stop-color="#fcfcff" stop-opacity="0.14"/><stop offset="0.15" stop-color="#f5f5ff" stop-opacity="0.4"/><stop offset="0.24" stop-color="#f0f0ff" stop-opacity="0.61"/><stop offset="0.33" stop-color="#ececff" stop-opacity="0.78"/><stop offset="0.4" stop-color="#e8e8ff" stop-opacity="0.9"/><stop offset="0.47" stop-color="#e7e7ff" stop-opacity="0.97"/><stop offset="0.52" stop-color="#e6e6ff"/><stop offset="0.56" stop-color="#e6e6ff" stop-opacity="0.95"/><stop offset="0.64" stop-color="#e6e6ff" stop-opacity="0.81"/><stop offset="0.75" stop-color="#e6e6ff" stop-opacity="0.58"/><stop offset="0.89" stop-color="#e6e6ff" stop-opacity="0.28"/><stop offset="1" stop-color="#e6e6ff" stop-opacity="0"/></linearGradient></defs><title>hintergrund_content_integratoren_haupt</title><g id="raster1"><g style="mask:url(#mask)"><path d="M1900,151.74,1846.88,184,1696.67,88.84,1843.14,0h-7L1693.25,86.68,1556.36,0h-6.79l140.21,88.78-152,92.2L1387.56,85.87,1529.13,0h-7l-138,83.7L1251.93,0h-6.78l135.52,85.81-152,92.2L1078.44,82.9,1215.12,0h-7L1075,80.73,947.51,0h-6.79l130.83,82.84-152,92.2L769.33,79.93,901.1,0h-7L765.9,77.76,643.09,0H636.3L762.43,79.87l-152,92.2L484,92,482,95.07,607,174.17l-152,92.21-90.39-57.24-1.95,3.07,88.88,56.27-152,92.21-54.34-34.41-1.94,3.07L296,362.79,144,455l-18.28-11.57-1.94,3.06,16.75,10.61L0,542.34v4.24l144-87.31,150.21,95.11-152,92.2L6.3,560.57l-1.94,3.07,134.32,85.05L2.75,731.14l1.88,3.1,137.48-83.38L292.32,746l-152,92.2L0,749.33v4.3l136.84,86.64-17,10.29,1.88,3.1,18.49-11.22,150.22,95.11L237,970l1.88,3.11,55-33.36,150.21,95.11-89.94,54.56,1.89,3.1L447.54,1037l150.21,95.11L471.32,1208.8l1.88,3.11,128-77.63,150.21,95.11L659.71,1285h7l88.1-53.44,63.6,40.27h0L839.22,1285H846l-24.93-15.78h0l-62.79-39.76,152-92.21,62.93,39.85h0l87.28,55.26L973.72,1285h7l83.21-50.47,79.71,50.47h6.78l-83-52.57,152-92.21,150.21,95.11L1287.73,1285h7l78.31-47.5,75,47.5h6.78l-78.34-49.6,152-92.21,150.22,95.11-77,46.7h7l73.41-44.53,70.33,44.53h6.78l-73.65-46.63,152-92.21,62.36,39.49v-4.3l-58.9-37.29,58.9-35.73v-4.24l-62.32,37.8-150.21-95.11,152-92.21L1900,992.89V988.6l-57-36.13,57-34.61v-4.24l-60.48,36.68-150.21-95.11,152-92.2L1900,800.14v-4.3l-55.21-35L1900,727.39v-4.24l-58.64,35.57-85.75-54.3h0l-64.46-40.81,152-92.21,56.84,36v-4.3l-53.37-33.79L1900,536.92v-4.24l-56.8,34.45L1693,472l152-92.21,55,34.83v-4.3l-51.53-32.63L1900,346.45v-4.24l-55,33.33-150.21-95.11,152-92.2L1900,221.88v-4.29l-49.69-31.47L1900,156ZM1687.94,280.36l-152,92.21-150.21-95.11,152-92.21Zm-91.42,520.38h0l85.9,54.39-152,92.2-86-54.48h0l-64.18-40.63,152-92.2ZM1287.94,986.56h0l-63.23-40,152-92.21,63.36,40.12h0l86.85,55-152,92.2Zm-531-331.93-152,92.2L454.69,651.72l152-92.2ZM610.17,557.42l152-92.21,150.21,95.11-152,92.21ZM760.34,656.8l150.21,95.11-152,92.2L608.32,749Zm3.46-2.11,152-92.2L1066,657.6,914,749.8Zm155.48-94.3,152-92.21,150.22,95.11-152,92.21Zm150.17,99.38,150.21,95.11-152,92.2L917.44,752Zm3.47-2.11,152-92.2,150.21,95.11-152,92.2Zm305.65,5.08,150.21,95.11-152,92.2-150.21-95.11ZM1228.4,563.36l152-92.21,150.21,95.11-152,92.21Zm1.84-191.59,152-92.21,150.21,95.11-152,92.21ZM1377,469l-152,92.21-150.21-95.11,152-92.21Zm-305.65-5.07L921.12,368.8l152-92.21,150.22,95.11Zm-3.46,2.1-152,92.21L765.64,463.11l152-92.21Zm-305.65-5.07L612,365.83l152-92.21,150.21,95.11Zm-3.47,2.1-152,92.21L456.53,460.14l152-92.21ZM603.27,557.35l-152,92.2L301.05,554.44l152-92.2Zm-1.84,191.59-152,92.2L299.21,746l152-92.2Zm3.43,2.16,150.21,95.11-152,92.21L452.85,843.31ZM758.5,848.38l150.21,95.11-152,92.21L606.48,940.59Zm3.46-2.1,152-92.2,150.22,95.11-152,92.2Zm305.65,5.07,150.21,95.11-152,92.21L915.6,943.56Zm3.47-2.1,152-92.2,150.21,95.11-152,92.2Zm311-188.61,152-92.21,150.21,95.11-152,92.21Zm1.84-191.59,152-92.21L1686.1,472l-152,92.21ZM1384.09,88l150.21,95.11-152,92.2-150.21-95.11Zm-5.27,189.41-152,92.21L1076.6,274.49l152-92.21ZM1075,85l150.22,95.12-152,92.2L923,177.21Zm-5.26,189.42-152,92.21L767.48,271.52l152-92.21ZM765.86,82l150.21,95.11-152,92.21L613.85,174.24ZM610.38,176.34l150.21,95.11-152,92.21L458.37,268.55ZM454.9,270.65l150.21,95.11L453.1,458,302.89,362.86ZM147.41,457.17l152-92.21,150.22,95.11-152,92.21Zm-1.84,191.58,152-92.2L447.8,651.66l-152,92.2Zm-1.84,191.59,152-92.21L446,843.24l-152,92.21Zm153.64,97.28,152-92.21,150.21,95.11-152,92.21ZM451,1034.9l152-92.21,150.21,95.11-152,92.21Zm303.84,192.39-150.21-95.11,152-92.21,150.22,95.11Zm5.27-189.42,152-92.21,150.22,95.11-152,92.21ZM1064,1230.26,976.69,1175h0l-62.93-39.85,152-92.21,63.88,40.45h0l86.33,54.66Zm68.35-149.48h0l-63.08-39.94,152-92.21,63.22,40h0l87,55.08-152,92.21Zm240.77,152.45-150.22-95.11,152-92.21L1525.1,1141Zm5.26-189.42,152-92.21,150.22,95.11-152,92.21ZM1834.21,1144l-152,92.21L1532,1141.09l152-92.21Zm1.84-191.58-152,92.2L1533.83,949.5l152-92.2ZM1751.33,706h0l86.57,54.81-152,92.2L1600,798.64h0l-64.32-40.73,152-92.2Zm88.41-136.78-152,92.21-150.21-95.11,152-92.21Zm1.84-191.59-152,92.21-150.22-95.11,152-92.21Zm-150.17-99.38-150.22-95.11,152-92.2,150.21,95.11Z" transform="translate(0)" style="opacity:0.15;fill:url(#Unbenannter_Verlauf_14)"/></g></g><g id="raster2"><g style="mask:url(#mask-2)"><path d="M1900,1521.74,1846.88,1554l-150.21-95.11L1843.14,1370h-7l-142.89,86.68L1556.36,1370h-6.79l140.21,88.78-152,92.2-150.21-95.11L1529.13,1370h-7l-138,83.7-132.2-83.7h-6.78l135.52,85.81-152,92.2-150.21-95.11,136.68-82.9h-7L1075,1450.73,947.51,1370h-6.79l130.83,82.84-152,92.2-150.21-95.11L901.1,1370h-7l-128.2,77.76L643.09,1370H636.3l126.13,79.87-152,92.2L484,1462l-1.94,3.07L607,1544.17l-152,92.21-90.39-57.24-1.95,3.07,88.88,56.27-152,92.21-54.34-34.41-1.94,3.07L296,1732.79,144,1825l-18.28-11.57-1.94,3.06,16.75,10.61L0,1912.34v4.24l144-87.31,150.21,95.11-152,92.2-135.85-86-1.94,3.07,134.32,85L2.75,2101.14l1.88,3.1,137.48-83.38L292.32,2116l-152,92.2L0,2119.33v4.3l136.84,86.64-17,10.29,1.88,3.1,18.49-11.22,150.22,95.11L237,2340l1.88,3.11,55-33.36,150.21,95.11-89.94,54.56,1.89,3.1L447.54,2407l150.21,95.11L471.32,2578.8l1.88,3.11,128-77.63,150.21,95.11L659.71,2655h7l88.1-53.44,63.6,40.27h0L839.22,2655H846l-24.93-15.78h0l-62.79-39.76,152-92.21,62.93,39.85h0l87.28,55.26L973.72,2655h7l83.21-50.47,79.71,50.47h6.78l-83-52.57,152-92.21,150.21,95.11L1287.73,2655h7l78.31-47.5,75,47.5h6.78l-78.34-49.6,152-92.21,150.22,95.11-77,46.7h7l73.41-44.53,70.33,44.53h6.78l-73.65-46.63,152-92.21,62.36,39.49v-4.3l-58.9-37.29,58.9-35.73v-4.24l-62.32,37.8-150.21-95.11,152-92.21,60.52,38.32v-4.29l-57-36.13,57-34.61v-4.24l-60.48,36.68-150.21-95.11,152-92.2,58.68,37.15v-4.3l-55.21-35,55.21-33.49v-4.24l-58.64,35.57-85.75-54.3h0l-64.46-40.81,152-92.21,56.84,36v-4.3l-53.37-33.79,53.37-32.38v-4.24l-56.8,34.45L1693,1842l152-92.21,55,34.83v-4.3l-51.53-32.63,51.53-31.26v-4.24l-55,33.33-150.21-95.11,152-92.2,53.16,33.65v-4.29l-49.69-31.47L1900,1526Zm-212.06,128.62-152,92.21-150.21-95.11,152-92.21Zm-91.42,520.38h0l85.9,54.39-152,92.2-86-54.48h0l-64.18-40.63,152-92.2Zm-308.58,185.82h0l-63.23-40,152-92.21,63.36,40.12h0l86.85,55-152,92.2Zm-531-331.93-152,92.2-150.21-95.11,152-92.2Zm-146.74-97.21,152-92.21,150.21,95.11-152,92.21Zm150.17,99.38,150.21,95.11-152,92.2L608.32,2119Zm3.46-2.11,152-92.2L1066,2027.6l-152,92.2Zm155.48-94.3,152-92.21,150.22,95.11-152,92.21Zm150.17,99.38,150.21,95.11-152,92.2L917.44,2122Zm3.47-2.11,152-92.2,150.21,95.11-152,92.2Zm305.65,5.08,150.21,95.11-152,92.2-150.21-95.11Zm-150.17-99.38,152-92.21,150.21,95.11-152,92.21Zm1.84-191.59,152-92.21,150.21,95.11-152,92.21ZM1377,1839l-152,92.21-150.21-95.11,152-92.21Zm-305.65-5.07L921.12,1738.8l152-92.21,150.22,95.11Zm-3.46,2.1-152,92.21-150.22-95.11,152-92.21Zm-305.65-5.07L612,1735.83l152-92.21,150.21,95.11Zm-3.47,2.1-152,92.21-150.21-95.11,152-92.21Zm-155.48,94.31-152,92.2-150.21-95.11,152-92.2Zm-1.84,191.59-152,92.2L299.21,2116l152-92.2Zm3.43,2.16,150.21,95.11-152,92.21-150.21-95.11Zm153.64,97.28,150.21,95.11-152,92.21-150.21-95.11Zm3.46-2.1,152-92.2,150.22,95.11-152,92.2Zm305.65,5.07,150.21,95.11-152,92.21L915.6,2313.56Zm3.47-2.1,152-92.2,150.21,95.11-152,92.2Zm311-188.61,152-92.21,150.21,95.11-152,92.21Zm1.84-191.59,152-92.21L1686.1,1842l-152,92.21Zm.22-381.07,150.21,95.11-152,92.2-150.21-95.11Zm-5.27,189.41-152,92.21-150.21-95.11,152-92.21ZM1075,1455l150.22,95.12-152,92.2L923,1547.21Zm-5.26,189.42-152,92.21-150.22-95.11,152-92.21ZM765.86,1452l150.21,95.11-152,92.21-150.21-95.11Zm-155.48,94.31,150.21,95.11-152,92.21-150.21-95.11ZM454.9,1640.65l150.21,95.11L453.1,1828l-150.21-95.11ZM147.41,1827.17l152-92.21,150.22,95.11-152,92.21Zm-1.84,191.58,152-92.2,150.22,95.11-152,92.2Zm-1.84,191.59,152-92.21L446,2213.24l-152,92.21Zm153.64,97.28,152-92.21,150.21,95.11-152,92.21ZM451,2404.9l152-92.21,150.21,95.11-152,92.21Zm303.84,192.39-150.21-95.11,152-92.21,150.22,95.11Zm5.27-189.42,152-92.21,150.22,95.11-152,92.21ZM1064,2600.26,976.69,2545h0l-62.93-39.85,152-92.21,63.88,40.45h0l86.33,54.66Zm68.35-149.48h0l-63.08-39.94,152-92.21,63.22,40h0l87,55.08-152,92.21Zm240.77,152.45-150.22-95.11,152-92.21L1525.1,2511Zm5.26-189.42,152-92.21,150.22,95.11-152,92.21ZM1834.21,2514l-152,92.21L1532,2511.09l152-92.21Zm1.84-191.58-152,92.2-150.21-95.11,152-92.2ZM1751.33,2076h0l86.57,54.81-152,92.2L1600,2168.64h0l-64.32-40.73,152-92.2Zm88.41-136.78-152,92.21-150.21-95.11,152-92.21Zm1.84-191.59-152,92.21-150.22-95.11,152-92.21Zm-150.17-99.38-150.22-95.11,152-92.2,150.21,95.11Z" transform="translate(0)" style="opacity:0.15;fill:url(#Unbenannter_Verlauf_40)"/></g></g></svg>